# AST/ASF file generated using VICON BodyLanguage
# -----------------------------------------------
:version 1.10
:name VICON
:units
  mass 1.0
  length 0.45
  angle deg
:documentation
   .ast/.asf automatically generated from VICON data using
   VICON BodyBuilder and BodyLanguage model FoxedUp or BRILLIANT.MOD
:root
   order TX TY TZ RX RY RZ
   axis XYZ
   position 0 0 0  
   orientation 0 0 0 
:bonedata
  begin
     id 1 
     name lhipjoint
     direction 0.537252 -0.787203 0.302774 
     length 2.29576 
     axis 0 0 0  XYZ
  end
  begin
     id 2 
     name lfemur
     direction 0.34202 -0.939693 0  
     length 7.31114  
     axis 0 0 20  XYZ
    dof rx ry rz
    limits (-160.0 20.0)
           (-70.0 70.0)
           (-60.0 70.0)
  end
  begin
     id 3 
     name ltibia
     direction 0.34202 -0.939693 0   
     length 8.36008   
     axis 0 0 20   XYZ
    dof rx
    limits (-10.0 170.0)
  end
  begin
     id 4 
     name lfoot
     direction 0.0969116 -0.266263 0.959016   
     length 2.16704   
     axis -90 7.62852e-016 20   XYZ
    dof rx rz
    limits (-45.0 90.0)
           (-70.0 20.0)
  end
  begin
     id 5 
     name ltoes
     direction 1.53563e-011 -4.21779e-011 1   
     length 1.08338   
     axis -90 7.62852e-016 20   XYZ
    dof rx
    limits (-90.0 20.0)
  end
  begin
     id 6 
     name rhipjoint
     direction -0.588228 -0.754791 0.290308   
     length 2.39434  
     axis 0 0 0  XYZ 
  end
  begin
     id 7 
     name rfemur
     direction -0.34202 -0.939693 0   
     length 7.45207   
     axis 0 0 -20   XYZ
    dof rx ry rz
    limits (-160.0 20.0)
           (-70.0 70.0)
           (-70.0 60.0)
  end
  begin
     id 8 
     name rtibia
     direction -0.34202 -0.939693 0   
     length 8.03565   
     axis 0 0 -20   XYZ
    dof rx
    limits (-10.0 170.0)
 end
 begin
     id 9 
     name rfoot
     direction -0.107009 -0.294004 0.949795   
     length 2.11509  
     axis -90 -7.62852e-016 -20   XYZ
    dof rx rz
    limits (-45.0 90.0)
           (-20.0 70.0)
  end
  begin
     id 10 
     name rtoes
     direction -1.53533e-011 -4.22004e-011 1   
     length 1.05493   
     axis -90 -7.62852e-016 -20   XYZ
    dof rx
    limits (-90.0 20.0)
  end
  begin
     id 11 
     name lowerback
     direction -0.0115208 0.997969 -0.0626515   
     length 2.03153   
     axis 0 0 0   XYZ
    dof rx ry rz
    limits (-20.0 45.0)
           (-30.0 30.0)
           (-30.0 30.0)
  end
  begin
     id 12 
     name upperback
     direction -0.00423475 0.999974 -0.00583614   
     length 2.03619   
     axis 0 0 0   XYZ
    dof rx ry rz
    limits (-20.0 45.0)
           (-30.0 30.0)
           (-30.0 30.0)
  end
  begin
     id 13 
     name thorax
     direction 0.00289429 0.999728 0.0231573   
     length 2.03921   
     axis 0 0 0   XYZ
    dof rx ry rz
    limits (-20.0 45.0)
           (-30.0 30.0)
           (-30.0 30.0)
  end
  begin
     id 14 
     name lowerneck
     direction 0.0188995 0.987777 0.154721   
     length 1.78836   
     axis 0 0 0   XYZ
    dof rx ry rz
    limits (-20.0 45.0)
           (-30.0 30.0)
           (-30.0 30.0)
  end
  begin
     id 15 
     name upperneck
     direction -0.00612612 0.992995 -0.118   
     length 1.81789   
     axis 0 0 0   XYZ
    dof rx ry rz
    limits (-20.0 45.0)
           (-30.0 30.0)
           (-30.0 30.0)
  end
  begin
     id 16
     name head
     direction -0.00420226 0.998397 -0.0564482  
     length 1.82234  
     axis 0 0 0   XYZ
    dof rx ry rz
    limits (-20.0 45.0)
           (-30.0 30.0)
           (-30.0 30.0)
  end
  begin
     id 17 
     name lclavicle
     direction 0.916488 0.396539 0.0529676  
     length 3.51732  
     axis 0 0 0   XYZ
    dof ry rz
    limits (-20.0 10.0)
           (0.0 20.0)
  end
  begin
     id 18 
     name lhumerus
     direction 1 -4.4896e-011 8.36962e-028   
     length 5.45077   
     axis 180 -30 -90   XYZ
    dof rx ry rz
    limits (-60.0 90.0)
           (-90.0 90.0)
           (-90.0 90.0)
  end
  begin
     id 19
     name lradius
     direction 1 -4.48962e-011 3.01407e-027   
     length 3.05488   
     axis 180 -30 -90   XYZ
    dof rx
    limits (-10.0 170.0)
  end
  begin
     id 20
     name lwrist
     direction 1 -4.49002e-011 4.72961e-027   
     length 1.52744   
     axis -2.72261e-015 90 90   XYZ
    dof ry
    limits (-180.0 0.0)
 end
  begin
     id 21 
     name lhand
     direction 1 -4.4899e-011 9.45681e-027   
     length 0.638818   
     axis -6.0311e-015 90 90   XYZ
    dof rx rz
    limits (-90.0 90.0)
           (-45.0 45.0)
  end
  begin
     id 22 
     name lfingers
     direction 1 -4.48871e-011 1.88632e-026   
     length 0.515032   
     axis -1.20625e-014 90 90   XYZ
    dof rx
    limits (0.0 90.0)
  end
  begin
     id 23
     name lthumb
     direction 0.707107 -6.34964e-011 0.707107   
     length 0.739485   
     axis -90 45 6.32835e-014   XYZ
    dof rx rz
    limits (-45.0 45.0)
           (-45.0 45.0)
  end
  begin
     id 24 
     name rclavicle
     direction -0.949427 0.303202 0.0815894   
     length 3.76167  
     axis 0 0 0   XYZ 
    dof ry rz
    limits (-10.0 20.0)
           (-20.0 0.0)
  end
  begin
     id 25 
     name rhumerus
     direction -1 -4.48971e-011 -6.43969e-018  
     length 4.88702   
     axis 180 30 90   XYZ
    dof rx ry rz
    limits (-90.0 60.0)
           (-90.0 90.0)
           (-90.0 90.0)
  end
  begin
     id 26 
     name rradius
     direction -1 -4.48987e-011 5.46662e-027   
     length 3.22603   
     axis 180 30 90   XYZ
    dof rx
    limits (-10.0 170.0)
  end
  begin
     id 27 
     name rwrist
     direction -1 -4.48956e-011 4.72476e-027   
     length 1.61302   
     axis -2.72261e-015 -90 -90   XYZ
    dof ry
    limits (-180.0 0.0)
  end
  begin
     id 28
     name rhand
     direction -1 -4.4889e-011 9.43571e-027   
     length 0.716293   
     axis -6.0311e-015 -90 -90   XYZ
    dof rx rz
    limits (-90.0 90.0)
           (-45.0 45.0)
  end
  begin
     id 29
     name rfingers
     direction -1 -4.48887e-011 1.88701e-026   
     length 0.577494   
     axis -1.20625e-014 -90 -90   XYZ
    dof rx
    limits (0.0 90.0)
  end
  begin
     id 30
     name rthumb
     direction -0.707107 -6.34825e-011 0.707107   
     length 0.829169   
     axis -90 -45 -6.32835e-014   XYZ
    dof rx rz
    limits (-45.0 45.0)
           (-45.0 45.0)
  end
:hierarchy
  begin
    root lhipjoint rhipjoint lowerback
    lhipjoint lfemur
    lfemur ltibia
    ltibia lfoot
    lfoot ltoes
    rhipjoint rfemur
    rfemur rtibia
    rtibia rfoot
    rfoot rtoes
    lowerback upperback
    upperback thorax
    thorax lowerneck lclavicle rclavicle
    lowerneck upperneck
    upperneck head
    lclavicle lhumerus
    lhumerus lradius
    lradius lwrist
    lwrist lhand lthumb
    lhand lfingers
    rclavicle rhumerus
    rhumerus rradius
    rradius rwrist
    rwrist rhand rthumb
    rhand rfingers
  end

#!OML:ASF F:\VICON\USERDATA\INSTALL\rory3\rory3.ASF
:FULLY-SPECIFIED
:DEGREES
1576
root 1.38127 18.5876 0.505481 -205.418 86.5885 -223.263
lowerback -2.44176 -1.12445 -0.826608
upperback -0.524531 -1.47227 -0.179827
thorax 0.846978 -0.735783 0.232811
lowerneck -25.2157 0.517966 2.94116
upperneck 7.92222 -0.0869559 -0.450481
head 6.4023 0.0611445 -0.618641
rclavicle -2.50717e-014 -2.50469e-014
rhumerus -41.1508 23.8794 -37.6749
rradius 38.8095
rwrist 224.892
rhand -23.4906 -16.2002
rfingers 7.12502
rthumb 2.9693 -46.1593
lclavicle -2.50717e-014 -2.50469e-014
lhumerus -49.5102 -35.7445 44.3129
lradius 29.9142
lwrist -7.18404
lhand 5.04672 18.6396
lfingers 7.12502
lthumb 30.4145 46.151
rfemur -14.3524 -10.5521 17.6068
rtibia 1.942
rfoot -3.74471 8.16896
rtoes -7.26842
lfemur -21.7981 6.6544 -21.431
ltibia 15.5404
lfoot -10.9594 -4.52297
ltoes -27.4705
1577
root 1.37802 18.5872 0.509479 -204.999 86.5141 -222.869
lowerback -2.48484 -1.1449 -0.902865
upperback -0.568752 -1.49707 -0.170345
thorax 0.828281 -0.747979 0.284036
lowerneck -25.0977 0.505527 2.9159
upperneck 7.94646 -0.0995882 -0.410975
head 6.39255 0.0571999 -0.603328
rclavicle -7.20594e-015 -2.48481e-014
rhumerus -40.3602 23.3795 -36.9161
rradius 38.5013
rwrist 225.428
rhand -23.4834 -16.1364
rfingers 7.12502
rthumb 2.97624 -46.0954
lclavicle -7.20594e-015 -2.48481e-014
lhumerus -48.495 -35.6152 43.4304
lradius 29.5054
lwrist -7.48533
lhand 5.01533 18.6496
lfingers 7.12502
lthumb 30.3846 46.1665
rfemur -14.364 -10.6253 17.6185
rtibia 1.91053
rfoot -3.78616 8.16132
rtoes -7.7547
lfemur -21.8546 6.63878 -21.4568
ltibia 15.5343
lfoot -10.8404 -4.54232
ltoes -27.4389
1578
root 1.37858 18.5882 0.510486 -203.433 86.4779 -221.346
lowerback -2.60921 -1.17523 -0.838337
upperback -0.59004 -1.53778 -0.158757
thorax 0.8752 -0.768178 0.255964
lowerneck -25.0109 0.506672 2.91051
upperneck 7.91716 -0.096927 -0.389371
head 6.37002 0.0598318 -0.595019
rclavicle 1.31695e-015 2.27608e-014
rhumerus -39.5111 22.9748 -36.2185
rradius 38.2276
rwrist 225.717
rhand -23.5362 -15.9141
rfingers 7.12502
rthumb 2.92523 -45.8738
lclavicle 1.31695e-015 2.27608e-014
lhumerus -47.5917 -35.5423 42.6404
lradius 29.1668
lwrist -7.54626
lhand 4.73665 18.5685
lfingers 7.12502
lthumb 30.1187 46.1342
rfemur -14.2722 -10.701 17.6929
rtibia 1.65575
rfoot -3.65259 8.13957
rtoes -7.54438
lfemur -21.9125 6.6211 -21.3969
ltibia 15.5421
lfoot -10.6291 -4.60661
ltoes -26.5888
1579
root 1.38512 18.5885 0.509965 -203.005 86.4428 -220.88
lowerback -2.75401 -1.1894 -0.838441
upperback -0.569797 -1.55502 -0.148364
thorax 0.977456 -0.777138 0.26249
lowerneck -25.01 0.508276 2.88325
upperneck 8.01672 -0.0863605 -0.409139
head 6.40286 0.0619812 -0.596201
rclavicle 1.37161e-014 1.71949e-014
rhumerus -38.6825 22.6271 -35.5182
rradius 37.9845
rwrist 225.924
rhand -23.4017 -15.7494
rfingers 7.12502
rthumb 3.05521 -45.7073
lclavicle 1.37161e-014 1.71949e-014
lhumerus -46.7323 -35.4491 41.9095
lradius 28.9045
lwrist -7.74416
lhand 4.42466 18.5268
lfingers 7.12502
lthumb 29.8211 46.1463
rfemur -14.2644 -10.7477 17.682
rtibia 1.77501
rfoot -3.70232 8.1679
rtoes -7.09495
lfemur -21.8149 6.61892 -21.397
ltibia 15.4904
lfoot -10.5243 -4.63159
ltoes -26.4309
1580
root 1.39228 18.5893 0.511882 -201.382 86.4497 -219.175
lowerback -2.84488 -1.18472 -0.755263
upperback -0.532733 -1.55055 -0.129101
thorax 1.06456 -0.775121 0.233242
lowerneck -25.006 0.478336 2.82593
upperneck 8.05377 -0.11806 -0.345344
head 6.41409 0.0507407 -0.570118
rclavicle -7.05686e-015 1.70955e-014
rhumerus -37.9203 22.1851 -34.8516
rradius 37.8243
rwrist 226.313
rhand -23.3578 -15.6863
rfingers 7.12502
rthumb 3.09759 -45.6435
lclavicle -7.05686e-015 1.70955e-014
lhumerus -45.8472 -35.3884 41.1622
lradius 28.6832
lwrist -8.01843
lhand 4.21966 18.7199
lfingers 7.12502
lthumb 29.6254 46.3743
rfemur -14.1265 -10.7772 17.7719
rtibia 1.76737
rfoot -3.75962 8.18972
rtoes -7.14878
lfemur -21.6783 6.61659 -21.2748
ltibia 15.4486
lfoot -10.5402 -4.64245
ltoes -26.1624
1581
root 1.39546 18.5888 0.512795 -203.378 86.3549 -221.131
lowerback -2.91592 -1.20744 -0.935829
upperback -0.50709 -1.57373 -0.167913
thorax 1.1346 -0.787459 0.291676
lowerneck -25.0546 0.46743 2.80989
upperneck 8.14604 -0.134797 -0.319901
head 6.45159 0.0447956 -0.56146
rclavicle 7.70291e-015 2.68359e-015
rhumerus -37.0597 21.9009 -34.2598
rradius 37.6843
rwrist 226.556
rhand -23.7403 -15.6192
rfingers 7.12502
rthumb 2.72817 -45.5815
lclavicle 7.70291e-015 2.68359e-015
lhumerus -44.9411 -35.2722 40.4087
lradius 28.4017
lwrist -8.42893
lhand 3.83779 18.7747
lfingers 7.12502
lthumb 29.2608 46.4933
rfemur -14.0138 -10.8262 17.5831
rtibia 1.68165
rfoot -3.75857 8.22971
rtoes -7.38214
lfemur -21.5962 6.66678 -21.4605
ltibia 15.4063
lfoot -10.54 -4.72211
ltoes -26.1981
1582
root 1.39555 18.5884 0.512195 -204.664 86.245 -222.346
lowerback -2.92083 -1.25444 -1.06902
upperback -0.480407 -1.63139 -0.207152
thorax 1.16798 -0.816884 0.323256
lowerneck -25.0851 0.479376 2.83324
upperneck 8.22615 -0.132338 -0.299369
head 6.48266 0.0489687 -0.558251
rclavicle 9.6659e-015 1.59028e-015
rhumerus -36.1876 21.8608 -33.8093
rradius 37.5523
rwrist 226.686
rhand -24.0976 -15.4471
rfingers 7.12502
rthumb 2.38311 -45.4135
lclavicle 9.6659e-015 1.59028e-015
lhumerus -44.0625 -35.1412 39.6474
lradius 28.1385
lwrist -8.79917
lhand 3.60227 18.6384
lfingers 7.12502
lthumb 29.0359 46.396
rfemur -13.8695 -10.9015 17.4214
rtibia 1.59452
rfoot -3.73473 8.28378
rtoes -7.50652
lfemur -21.489 6.61731 -21.5882
ltibia 15.3818
lfoot -10.6684 -4.73794
ltoes -26.9446
